<svg width="40" height="40" viewBox="0 0 40 40" fill="none" xmlns="http://www.w3.org/2000/svg">
<path d="M0 4C0 1.79086 1.79086 0 4 0H36C38.2091 0 40 1.79086 40 4V36C40 38.2091 38.2091 40 36 40H4C1.79086 40 0 38.2091 0 36V4Z" fill="#FAFAFA"/>
<path d="M2.5 14.9444C2.5 10.5885 2.5 8.4105 3.34773 6.74674C4.09341 5.28326 5.28326 4.09341 6.74674 3.34773C8.4105 2.5 10.5885 2.5 14.9444 2.5H25.0556C29.4115 2.5 31.5895 2.5 33.2533 3.34773C34.7167 4.09341 35.9066 5.28326 36.6523 6.74674C37.5 8.4105 37.5 10.5885 37.5 14.9444V25.0556C37.5 29.4115 37.5 31.5895 36.6523 33.2533C35.9066 34.7167 34.7167 35.9066 33.2533 36.6523C31.5895 37.5 29.4115 37.5 25.0556 37.5H14.9444C10.5885 37.5 8.4105 37.5 6.74674 36.6523C5.28326 35.9066 4.09341 34.7167 3.34773 33.2533C2.5 31.5895 2.5 29.4115 2.5 25.0556V14.9444Z" fill="#FAFAFA"/>
<path d="M27.5642 10.6538L20.0803 16.4943L12.4253 10.6538V10.6554L12.4345 10.6633V18.8416L19.994 24.8084L27.5642 19.0721V10.6538Z" fill="#EA4335"/>
<path d="M29.5294 9.23298L27.564 10.6537V19.0719L33.7484 14.3237V11.4634C33.7484 11.4634 32.9977 7.37822 29.5294 9.23298Z" fill="#FBBC05"/>
<path d="M27.564 19.0722V29.9908H32.304C32.304 29.9908 33.6528 29.8519 33.7499 28.3144V14.324L27.564 19.0722Z" fill="#34A853"/>
<path d="M12.4349 30V18.8414L12.4253 18.8335L12.4349 30Z" fill="#C5221F"/>
<path d="M12.4252 10.6554L10.4706 9.24265C7.00224 7.38788 6.25 11.4715 6.25 11.4715V14.3318L12.4252 18.8337V10.6554Z" fill="#C5221F"/>
<path d="M12.4253 10.6553V18.8336L12.4349 18.8415V10.6632L12.4253 10.6553Z" fill="#C5221F"/>
<path d="M6.25 14.3333V28.3237C6.34557 29.8627 7.69591 30.0001 7.69591 30.0001H12.436L12.4252 18.8336L6.25 14.3333Z" fill="#4285F4"/>
</svg>
