<svg width="40" height="40" viewBox="0 0 40 40" fill="none" xmlns="http://www.w3.org/2000/svg">
<path d="M0 4C0 1.79086 1.79086 0 4 0H36C38.2091 0 40 1.79086 40 4V36C40 38.2091 38.2091 40 36 40H4C1.79086 40 0 38.2091 0 36V4Z" fill="#FAFAFA"/>
<circle cx="20" cy="20" r="17.5" fill="#105DFB"/>
<path fill-rule="evenodd" clip-rule="evenodd" d="M8.59497 27.4495V12.1794H15.6541C17.9214 12.1794 19.7595 14.0175 19.7595 16.2849C19.7595 17.7257 19.3165 18.6183 17.692 19.5339C19.6359 20.4196 20.1758 21.6472 20.1758 23.3595C20.1758 25.6758 18.1181 27.4495 15.8017 27.4495H8.59497ZM11.5821 14.7071V18.379H15.0782C15.0782 18.379 16.7774 18.379 16.7774 16.5431C16.7774 14.7071 15.0782 14.7071 15.0782 14.7071H11.5821ZM11.5821 24.8634V20.8985H15.3321C15.9375 20.8985 17.2071 21.211 17.2071 23.086C17.2071 24.4767 15.9571 24.8504 15.3321 24.8634H11.5821Z" fill="#FAFAFA"/>
<path fill-rule="evenodd" clip-rule="evenodd" d="M26.5625 16.3868C24.4141 16.3868 21.2305 17.9298 21.2305 22.0314C21.2305 24.5289 22.5977 27.7345 26.6993 27.7345C29.9805 27.7345 31.4909 25.3256 31.836 24.1212H28.75C28.5938 24.6681 27.9883 25.2735 26.6993 25.2735C24.8243 25.2735 24.1602 23.672 24.0625 22.8712H31.836V22.0314C31.836 17.9298 28.711 16.3868 26.5625 16.3868ZM26.5625 18.7306C24.8125 18.7306 24.1667 20.1759 24.0625 20.8985H28.75C28.75 20.1759 28.3125 18.7306 26.5625 18.7306Z" fill="#FAFAFA"/>
<path d="M22.8321 13.047V14.9415H30.1954V13.047H22.8321Z" fill="#FAFAFA"/>
</svg>
